<?xml version="1.0" ?><svg id="Layer_1" style="enable-background:new 0 0 128 128;" version="1.1" viewBox="0 0 128 128" xml:space="preserve" xmlns="http://www.w3.org/2000/svg" xmlns:xlink="http://www.w3.org/1999/xlink">

<rect width="128" height="128" fill="white" />


<style type="text/css">
	.st0{fill:#0A0A0A;}
</style><g id="Layer_1_1_"/><g><path class="st0" d="M102,1H26c-1.7,0-3,1.3-3,3v120c0,1.7,1.3,3,3,3h76c1.7,0,3-1.3,3-3V4C105,2.3,103.7,1,102,1z M103,124   c0,0.6-0.4,1-1,1H26c-0.6,0-1-0.4-1-1V4c0-0.6,0.4-1,1-1h76c0.6,0,1,0.4,1,1V124z"/><path class="st0" d="M96,8H83c0-1.7-1.3-3-3-3H48c-1.7,0-3,1.3-3,3H32c-1.7,0-3,1.3-3,3v106c0,1.7,1.3,3,3,3h64c1.7,0,3-1.3,3-3V11   C99,9.3,97.7,8,96,8z M47,8c0-0.6,0.4-1,1-1h32c0.6,0,1,0.4,1,1v2c0,0.6-0.4,1-1,1H48c-0.6,0-1-0.4-1-1V8z M97,117c0,0.6-0.4,1-1,1   H32c-0.6,0-1-0.4-1-1V11c0-0.6,0.4-1,1-1h13c0,1.7,1.3,3,3,3h32c1.7,0,3-1.3,3-3h13c0.6,0,1,0.4,1,1V117z"/><path class="st0" d="M90,25H56c-0.6,0-1,0.4-1,1s0.4,1,1,1h34c0.6,0,1-0.4,1-1S90.6,25,90,25z"/><path class="st0" d="M56,33h16c0.6,0,1-0.4,1-1s-0.4-1-1-1H56c-0.6,0-1,0.4-1,1S55.4,33,56,33z"/><path class="st0" d="M49.3,24L42,31.3L38.7,28c-0.4-0.4-1-0.4-1.4,0s-0.4,1,0,1.4l4.7,4.7l8.7-8.7c0.4-0.4,0.4-1,0-1.4   S49.7,23.6,49.3,24z"/><path class="st0" d="M90,46H56c-0.6,0-1,0.4-1,1s0.4,1,1,1h34c0.6,0,1-0.4,1-1S90.6,46,90,46z"/><path class="st0" d="M56,54h16c0.6,0,1-0.4,1-1s-0.4-1-1-1H56c-0.6,0-1,0.4-1,1S55.4,54,56,54z"/><path class="st0" d="M49.3,45L42,52.3L38.7,49c-0.4-0.4-1-0.4-1.4,0s-0.4,1,0,1.4l4.7,4.7l8.7-8.7c0.4-0.4,0.4-1,0-1.4   S49.7,44.6,49.3,45z"/><path class="st0" d="M90,67H56c-0.6,0-1,0.4-1,1s0.4,1,1,1h34c0.6,0,1-0.4,1-1S90.6,67,90,67z"/><path class="st0" d="M56,75h16c0.6,0,1-0.4,1-1s-0.4-1-1-1H56c-0.6,0-1,0.4-1,1S55.4,75,56,75z"/><path class="st0" d="M49.3,66L42,73.3L38.7,70c-0.4-0.4-1-0.4-1.4,0s-0.4,1,0,1.4l4.7,4.7l8.7-8.7c0.4-0.4,0.4-1,0-1.4   S49.7,65.6,49.3,66z"/><path class="st0" d="M90,88H56c-0.6,0-1,0.4-1,1s0.4,1,1,1h34c0.6,0,1-0.4,1-1S90.6,88,90,88z"/><path class="st0" d="M72,94H56c-0.6,0-1,0.4-1,1s0.4,1,1,1h16c0.6,0,1-0.4,1-1S72.6,94,72,94z"/></g></svg>
